<svg width="512" height="512" viewBox="0 0 512 512" xmlns="http://www.w3.org/2000/svg">
  <!-- Background Circle with Gradient -->
  <defs>
    <radialGradient id="bgGradient" cx="0.3" cy="0.3" r="0.8">
      <stop offset="0%" style="stop-color:#4FC3F7;stop-opacity:1" />
      <stop offset="100%" style="stop-color:#1976D2;stop-opacity:1" />
    </radialGradient>
    <linearGradient id="zGradient" x1="0%" y1="0%" x2="100%" y2="100%">
      <stop offset="0%" style="stop-color:#FFFFFF;stop-opacity:1" />
      <stop offset="50%" style="stop-color:#E3F2FD;stop-opacity:1" />
      <stop offset="100%" style="stop-color:#BBDEFB;stop-opacity:1" />
    </linearGradient>
    <linearGradient id="screenGradient" x1="0%" y1="0%" x2="0%" y2="100%">
      <stop offset="0%" style="stop-color:#2E3440;stop-opacity:1" />
      <stop offset="100%" style="stop-color:#3B4252;stop-opacity:1" />
    </linearGradient>
    <filter id="glow">
      <feGaussianBlur stdDeviation="3" result="coloredBlur"/>
      <feMerge> 
        <feMergeNode in="coloredBlur"/>
        <feMergeNode in="SourceGraphic"/>
      </feMerge>
    </filter>
  </defs>
  
  <!-- Main Background Circle -->
  <circle cx="256" cy="256" r="240" fill="url(#bgGradient)" stroke="#0D47A1" stroke-width="4"/>
  
  <!-- Monitor/Screen Container -->
  <rect x="120" y="150" width="272" height="180" rx="12" ry="12" fill="url(#screenGradient)" stroke="#1565C0" stroke-width="3"/>
  
  <!-- Screen Content Area -->
  <rect x="135" y="165" width="242" height="150" rx="6" ry="6" fill="#1E1E1E"/>
  
  <!-- Event Log Rows (representing log entries) -->
  <rect x="145" y="175" width="222" height="12" fill="#4CAF50" opacity="0.8"/>
  <rect x="145" y="192" width="222" height="12" fill="#FF9800" opacity="0.8"/>
  <rect x="145" y="209" width="222" height="12" fill="#F44336" opacity="0.8"/>
  <rect x="145" y="226" width="222" height="12" fill="#2196F3" opacity="0.8"/>
  <rect x="145" y="243" width="222" height="12" fill="#9C27B0" opacity="0.8"/>
  <rect x="145" y="260" width="222" height="12" fill="#4CAF50" opacity="0.8"/>
  <rect x="145" y="277" width="222" height="12" fill="#FF9800" opacity="0.8"/>
  <rect x="145" y="294" width="222" height="12" fill="#2196F3" opacity="0.8"/>
  
  <!-- Level Indicators (dots) -->
  <circle cx="155" cy="181" r="4" fill="#4CAF50"/>
  <circle cx="155" cy="198" r="4" fill="#FF9800"/>
  <circle cx="155" cy="215" r="4" fill="#F44336"/>
  <circle cx="155" cy="232" r="4" fill="#2196F3"/>
  <circle cx="155" cy="249" r="4" fill="#9C27B0"/>
  <circle cx="155" cy="266" r="4" fill="#4CAF50"/>
  <circle cx="155" cy="283" r="4" fill="#FF9800"/>
  <circle cx="155" cy="300" r="4" fill="#2196F3"/>
  
  <!-- Monitor Stand -->
  <rect x="235" y="330" width="42" height="25" fill="#37474F" rx="3"/>
  <rect x="215" y="355" width="82" height="8" fill="#37474F" rx="4"/>
  
  <!-- Large "Z" Letter -->
  <path d="M 206 80 L 306 80 L 311 90 L 231 130 L 311 130 L 306 140 L 206 140 L 201 130 L 281 90 L 201 90 Z" 
        fill="url(#zGradient)" 
        stroke="#0D47A1" 
        stroke-width="2" 
        filter="url(#glow)"/>
  
  <!-- Subtle Highlight on Monitor -->
  <rect x="140" y="165" width="60" height="40" rx="6" ry="6" fill="rgba(255,255,255,0.1)"/>
  
  <!-- Search/Magnifying Glass Icon -->
  <circle cx="350" cy="380" r="25" fill="none" stroke="#FFFFFF" stroke-width="4" opacity="0.9"/>
  <line x1="370" y1="400" x2="385" y2="415" stroke="#FFFFFF" stroke-width="4" stroke-linecap="round" opacity="0.9"/>
</svg>